<svg width="32" height="32" xmlns="http://www.w3.org/2000/svg">

 <g>
  <title>Layer 1</title>
  <path id="svg_1" fill="black" d="m27.5,23.5c0.5523,0 1,-0.4477 1,-1c0,-0.5523 -0.4477,-1 -1,-1l-17.2408,0l-0.69824,-2.5019c0.03506,0.0013 0.07024,0.0019 0.10554,0.0019l16.667,0c1.3661,0 2.5597,-0.923 2.9035,-2.2451l2.7308,-10.50329c0.0779,-0.29962 0.0127,-0.61843 -0.1767,-0.86334c-0.1894,-0.24491 -0.4815,-0.38829 -0.7911,-0.38829l-25.34551,0l-1.19129,-4.26878c-0.12063,-0.43225 -0.51443,-0.7312 -0.96319,-0.7312l-2.50001,0c-0.55229,0 -1,0.44772 -1,1c0,0.55229 0.44771,1 1,1l1.74086,0l2.7204,9.7481l1.30177,5.0068c0.06859,0.2638 0.171,0.5117 0.30187,0.7395l1.47191,5.2744c0.12063,0.4322 0.51444,0.7312 0.9632,0.7312l0.37731,0c-0.54896,0.6848 -0.87732,1.554 -0.87732,2.5c0,2.2091 1.7909,4 4,4c2.2091,0 4,-1.7909 4,-4c0,-0.946 -0.3284,-1.8152 -0.8773,-2.5l4.7546,0c-0.5489,0.6848 -0.8773,1.554 -0.8773,2.5c0,2.2091 1.7909,4 4,4c2.2091,0 4,-1.7909 4,-4c0,-0.946 -0.3284,-1.8152 -0.8773,-2.5l0.3773,0zm-20.10758,-12.2724l-1.09917,-4.22762l23.41355,0l-2.4055,9.25162c-0.1146,0.4407 -0.5124,0.7484 -0.9678,0.7484l-16.667,0c-0.30037,0 -0.57571,-0.1339 -0.76125,-0.3515l-1.51283,-5.4209zm5.60758,12.7724c-1.1046,0 -2,0.8954 -2,2c0,1.1045 0.8954,2 2,2c1.1046,0 2,-0.8955 2,-2c0,-1.1046 -0.8954,-2 -2,-2zm9,2c0,-1.1046 0.8954,-2 2,-2c1.1046,0 2,0.8954 2,2c0,1.1045 -0.8954,2 -2,2c-1.1046,0 -2,-0.8955 -2,-2z" clip-rule="evenodd" fill-rule="evenodd"/>
  <text id="svg_2" font-family="'Helvetica Neue', Helvetica, Arial-Unicode, Arial, Sans-serif" font-weight="bold" font-size="5px" fill="#000000" y="45" x="0">Created by HideMaru</text>
  <text id="svg_3" font-family="'Helvetica Neue', Helvetica, Arial-Unicode, Arial, Sans-serif" font-weight="bold" font-size="5px" fill="#000000" y="50" x="0">from the Noun Project</text>
 </g>
</svg>