<svg width="64" height="64" xmlns="http://www.w3.org/2000/svg">
 <metadata/>

 <g>
  <title>Layer 1</title>
  <g id="svg_1">
   <g id="svg_2">
    <path id="svg_3" d="m32.02,45.901c-0.003,0.035 -0.02,0.064 -0.02,0.099l0,4c0,0.553 0.448,1 1,1c0.553,0 1,-0.447 1,-1l0,-4c0,-0.035 -0.017,-0.064 -0.02,-0.099c2.289,-0.458 4.02,-2.48 4.02,-4.901s-1.731,-4.443 -4.02,-4.901c0.003,-0.035 0.02,-0.064 0.02,-0.099l0,-22c0,-0.552 -0.447,-1 -1,-1c-0.552,0 -1,0.448 -1,1l0,22c0,0.035 0.017,0.064 0.02,0.099c-2.289,0.458 -4.02,2.48 -4.02,4.901s1.731,4.443 4.02,4.901zm0.98,-7.901c1.654,0 3,1.346 3,3s-1.346,3 -3,3s-3,-1.346 -3,-3s1.346,-3 3,-3z"/>
    <path id="svg_4" d="m56,7l-48,0c-0.552,0 -1,0.448 -1,1l0,48c0,0.553 0.448,1 1,1l48,0c0.553,0 1,-0.447 1,-1l0,-48c0,-0.552 -0.447,-1 -1,-1zm-1,48l-46,0l0,-46l46,0l0,46z"/>
    <path id="svg_5" d="m45,28.899l0,21.101c0,0.553 0.447,1 1,1s1,-0.447 1,-1l0,-21.101c2.279,-0.465 4,-2.484 4,-4.899s-1.721,-4.434 -4,-4.899l0,-5.101c0,-0.552 -0.447,-1 -1,-1s-1,0.448 -1,1l0,5.101c-2.279,0.465 -4,2.484 -4,4.899s1.721,4.434 4,4.899zm1,-7.899c1.654,0 3,1.346 3,3s-1.346,3 -3,3s-3,-1.346 -3,-3s1.346,-3 3,-3z"/>
    <path id="svg_6" d="m19,32.899l0,17.101c0,0.553 0.448,1 1,1s1,-0.447 1,-1l0,-17.101c2.279,-0.465 4,-2.484 4,-4.899s-1.721,-4.434 -4,-4.899l0,-9.101c0,-0.552 -0.448,-1 -1,-1s-1,0.448 -1,1l0,9.101c-2.279,0.465 -4,2.484 -4,4.899s1.721,4.434 4,4.899zm1,-7.899c1.654,0 3,1.346 3,3s-1.346,3 -3,3s-3,-1.346 -3,-3s1.346,-3 3,-3z"/>
   </g>
  </g>
 </g>
</svg>