<svg height="64" width="64" xmlns="http://www.w3.org/2000/svg"><path d="m31.629 24.761a1.5 1.5 0 0 1 -2.12.036l-6.509-6.291v25.524a1.5 1.5 0 0 1 -3 0v-25.524l-6.509 6.294a1.5 1.5 0 0 1 -2.084-2.157l9.032-8.73.018-.017.014-.009a1.492 1.492 0 0 1 .438-.292c.011 0 .024-.007.035-.012s.027-.007.04-.012a1.5 1.5 0 0 1 .47-.092h.023.019.018.028a1.487 1.487 0 0 1 .469.092c.012 0 .024.006.036.011s.024.007.035.011h.007a1.5 1.5 0 0 1 .435.29l.014.009.018.017 9.032 8.73a1.5 1.5 0 0 1 .041 2.122zm21 14.478a1.5 1.5 0 0 0 -2.12-.036l-6.509 6.291v-25.524a1.5 1.5 0 0 0 -3 0v25.524l-6.509-6.294a1.5 1.5 0 0 0 -2.084 2.157l9.032 8.73.018.017c0 .005.01.006.014.01a1.474 1.474 0 0 0 .156.128c.012.008.021.02.033.027a1.47 1.47 0 0 0 .259.14l.021.007a.2.2 0 0 0 .026.008c.029.011.06.018.089.027a1.247 1.247 0 0 0 .147.045 1.485 1.485 0 0 0 .594 0 1.591 1.591 0 0 0 .166-.051c.023-.007.046-.012.069-.021a.276.276 0 0 0 .027-.008l.02-.007a1.487 1.487 0 0 0 .261-.14l.02-.017a1.711 1.711 0 0 0 .168-.138l.014-.01.018-.017 9.032-8.73a1.5 1.5 0 0 0 .038-2.118z"/></svg>